/* XPM */
static char *c2290b36fa554633b790285b971b6c89[] = {
/* columns rows colors chars-per-pixel */
"64 64 3 1 ",
"  c black",
". c #FF8400",
"X c #FFCC80",
/* pixels */
"XXXXXXXXXXXXXXXXXXXXXXXXXX           XXXXXXXXXXXXXXXXXXXXXXXXXXX",
"XXXXXXXXXXXXXXXXXXXXXX    ..... .....    XXXXXXXXXXXXXXXXXXXXXXX",
"XXXXXXXXXXXXXXXXXXX   ......... .........   XXXXXXXXXXXXXXXXXXXX",
"XXXXXXXXXXXXXXXXX  ............ ............  XXXXXXXXXXXXXXXXXX",
"XXXXXXXXXXXXXXX  .............. ..............  XXXXXXXXXXXXXXXX",
"XXXXXXXXXXXXXX ................ ................ XXXXXXXXXXXXXXX",
"XXXXXXXXXXXXX ................. ................. XXXXXXXXXXXXXX",
"XXXXXXXXXXX  .................. ..................  XXXXXXXXXXXX",
"XXXXXXXXXX .................... .................... XXXXXXXXXXX",
"XXXXXXXXX ..................... ..................... XXXXXXXXXX",
"XXXXXXXX ...................... ...................... XXXXXXXXX",
"XXXXXXX ....................... ....................... XXXXXXXX",
"XXXXXX ........................ ........................ XXXXXXX",
"XXXXXX  ....................... .......................  XXXXXXX",
"XXXXX .. ...................... ...................... .. XXXXXX",
"XXXX ....  .................... ....................  .... XXXXX",
"XXXX ...... ................... ................... ...... XXXXX",
"XXX ........  ................. .................  ........ XXXX",
"XXX ..........   .............. ..............   .......... XXXX",
"XX ..............   ........... ...........   .............. XXX",
"XX .................     ...... ......     ................. XXX",
"XX ......................             ...................... XXX",
"X ............................. ............................. XX",
"X ............................. ............................. XX",
"X ............................. ............................. XX",
"X ............................. ............................. XX",
" .............................. .............................. X",
" .............................. .............................. X",
" .............................. .............................. X",
" .............................. .............................. X",
" .............................. .............................. X",
"                                                               X",
" .............................. .............................. X",
" .............................. .............................. X",
" .............................. .............................. X",
" .............................. .............................. X",
" .............................. .............................. X",
"X ............................. ............................. XX",
"X ............................. ............................. XX",
"X ............................. ............................. XX",
"X ............................. ............................. XX",
"XX ......................             ...................... XXX",
"XX .................     ...... ......     ................. XXX",
"XX ..............   ........... ...........   .............. XXX",
"XXX ..........   .............. ..............   .......... XXXX",
"XXX ........  ................. .................  ........ XXXX",
"XXXX ...... ................... ................... ...... XXXXX",
"XXXX ....  .................... ....................  .... XXXXX",
"XXXXX .. ...................... ...................... .. XXXXXX",
"XXXXXX  ....................... .......................  XXXXXXX",
"XXXXXX ........................ ........................ XXXXXXX",
"XXXXXXX ....................... ....................... XXXXXXXX",
"XXXXXXXX ...................... ...................... XXXXXXXXX",
"XXXXXXXXX ..................... ..................... XXXXXXXXXX",
"XXXXXXXXXX .................... .................... XXXXXXXXXXX",
"XXXXXXXXXXX  .................. ..................  XXXXXXXXXXXX",
"XXXXXXXXXXXXX ................. ................. XXXXXXXXXXXXXX",
"XXXXXXXXXXXXXX ................ ................ XXXXXXXXXXXXXXX",
"XXXXXXXXXXXXXXX  .............. ..............  XXXXXXXXXXXXXXXX",
"XXXXXXXXXXXXXXXXX  ............ ............  XXXXXXXXXXXXXXXXXX",
"XXXXXXXXXXXXXXXXXXX   ......... .........   XXXXXXXXXXXXXXXXXXXX",
"XXXXXXXXXXXXXXXXXXXXXX    ..... .....    XXXXXXXXXXXXXXXXXXXXXXX",
"XXXXXXXXXXXXXXXXXXXXXXXXXX           XXXXXXXXXXXXXXXXXXXXXXXXXXX",
"XXXXXXXXXXXXXXXXXXXXXXXXXXXXXXXXXXXXXXXXXXXXXXXXXXXXXXXXXXXXXXXX"
};
