/* XPM */
static const char *collectible[] = {
/* columns rows colors chars-per-pixel */
"32 32 109 2 ",
"   c black",
".  c #000300",
"X  c #0A0A0A",
"o  c #001100",
"O  c #011501",
"+  c #001700",
"@  c #101610",
"#  c #151415",
"$  c #002000",
"%  c #002400",
"&  c #002600",
"*  c #002800",
"=  c #002D00",
"-  c #013901",
";  c #004400",
":  c #004600",
">  c #004900",
",  c #004F00",
"<  c #005200",
"1  c #005B00",
"2  c #006700",
"3  c #006B00",
"4  c #007100",
"5  c #007400",
"6  c #176217",
"7  c #127412",
"8  c #2B5F2B",
"9  c #337633",
"0  c #474E47",
"q  c #555555",
"w  c #5E5B5E",
"e  c #5C5C5C",
"r  c #5F5F5F",
"t  c #615F61",
"y  c #646264",
"u  c #797679",
"i  c #008300",
"p  c #008800",
"a  c #008D00",
"s  c #009000",
"d  c #009600",
"f  c #009700",
"g  c #00A500",
"h  c #00A900",
"j  c #00AA00",
"k  c #00AC00",
"l  c #00B300",
"z  c #00BC00",
"x  c #0CBF0C",
"c  c #3F8A3F",
"v  c #00C100",
"b  c #00C400",
"n  c #05C205",
"m  c #00CD00",
"M  c #00CE00",
"N  c #00D100",
"B  c #00D500",
"V  c #00DE00",
"C  c #05D905",
"Z  c #00E500",
"A  c #00E600",
"S  c #01EB01",
"D  c #00ED00",
"F  c #00EE00",
"G  c #06F506",
"H  c #00F800",
"J  c #00FA00",
"K  c #00FC00",
"L  c #00FE00",
"P  c #00FF00",
"I  c #02FF02",
"U  c #03FE03",
"Y  c #03FF03",
"T  c #06FF06",
"R  c #0EFF0E",
"E  c #1DFF1D",
"W  c #37FD37",
"Q  c #3FFF3F",
"!  c #7B887B",
"~  c #46FF46",
"^  c #4EFF4E",
"/  c #57FF57",
"(  c #5FFF5F",
")  c #68D668",
"_  c #60FF60",
"`  c #63FF63",
"'  c #808080",
"]  c #83CC83",
"[  c #9BD89B",
"{  c #85FF85",
"}  c #88FF88",
"|  c #99E499",
" . c #98F398",
".. c #A7FFA7",
"X. c #B8FFB8",
"o. c #B9FFB9",
"O. c #BFFFBF",
"+. c #D5D1D5",
"@. c #D8D7D8",
"#. c #C8EEC8",
"$. c #C2FFC2",
"%. c #DDFFDD",
"&. c #EBFFEB",
"*. c #EDFFED",
"=. c #F4FFF4",
"-. c #F6FFF6",
";. c #FDFFFD",
":. c #FFFFFF",
">. c None",
/* pixels */
">.>.>.>.>.>.>.>.>.>.>.>.>.>.>.>.>.>.>.>.>.>.>.>.>.>.>.>.>.>.>.>.",
">.>.>.>.>.>.>.>.>.>.>.>.>.>.>.>.>.>.>.>.>.>.>.>.>.>.>.>.>.>.>.>.",
">.>.>.>.>.>.>.>.>.>.>.>.>.>.>.>.>.>.>.>.>.>.>.>.>.>.>.>.>.>.>.>.",
">.>.>.>.>.>.>.>.>.>.>.>.>.>.>.>.>.>.>.>.>.>.>.>.>.>.>.>.>.>.>.>.",
">.>.>.>.>.>.>.>.>.>.>.>.>.>.>.>.>.>.>.>.>.>.>.>.>.>.>.>.>.>.>.>.",
">.>.>.>.>.>.>.>.>.>.>.>.# @ O >.>.>.>.>.>.>.>.>.>.>.>.>.>.>.>.>.",
">.>.>.>.>.>.>.>.>.>.>.  u [ n % >.>.>.>.>.>.>.>.>.>.>.>.>.>.>.>.",
">.>.>.>.>.>.>.>.>.>.X ' +.o.G j ; >.>.>.>.>.>.>.>.>.>.>.>.>.>.>.",
">.>.>.>.>.>.>.>.>.>.y @.:.o.T L f > >.>.>.>.>.>.>.>.>.>.>.>.>.>.",
">.>.>.>.>.>.>.>.>.0 #.=.*. .C H Z a * >.>.>.>.>.>.>.>.>.>.>.>.>.",
">.>.>.>.>.>.>.  w #.W $.{ x - B 2 4 v o >.>.>.>.>.>.>.>.>.>.>.>.",
">.>.>.>.>.>.>.  r =.O.( E F l < s V M o >.>.>.>.>.>.>.>.>.>.>.>.",
">.>.>.>.>.>.>.  r :.=.~ L L Z % g L M o >.>.>.>.>.>.>.>.>.>.>.>.",
">.>.>.>.>.>.>.  r :.=.Q L L Z % g L M o >.>.>.>.>.>.>.>.>.>.>.>.",
">.>.>.>.>.>.>.  r :.=.Q L L Z % g L M o >.>.>.>.>.>.>.>.>.>.>.>.",
">.>.>.>.>.>.>.  r :.=.Q L L Z % g L M o >.>.>.>.>.>.>.>.>.>.>.>.",
">.>.>.>.>.>.>.  r :.=.Q L L Z % g L M o >.>.>.>.>.>.>.>.>.>.>.>.",
">.>.>.>.>.>.>.  r :.=.Q L L Z % g L M o >.>.>.>.>.>.>.>.>.>.>.>.",
">.>.>.>.>.>.>.  q :.=.Q L L Z % g L M o >.>.>.>.>.>.>.>.>.>.>.>.",
">.>.>.>.>.>.>.  r :.&.~ L L Z % g L M o >.>.>.>.>.>.>.>.>.>.>.>.",
">.>.>.>.>.>.>.  t %.^ ..` L Z % g L M o >.>.>.>.>.>.>.>.>.>.>.>.",
">.>.>.>.>.>.>.  8 ( R / } ) 7 ! 9 k M o >.>.>.>.>.>.>.>.>.>.>.>.",
">.>.>.>.>.>.>.>., z H L ` ] 6 | c 5 d o >.>.>.>.>.>.>.>.>.>.>.>.",
">.>.>.>.>.>.>.>.>.= N H L L L L F p   >.>.>.>.>.>.>.>.>.>.>.>.>.",
">.>.>.>.>.>.>.>.>.>.* b L L L H 3 O >.>.>.>.>.>.>.>.>.>.>.>.>.>.",
">.>.>.>.>.>.>.>.>.>.>.; j L F 2 = >.>.>.>.>.>.>.>.>.>.>.>.>.>.>.",
">.>.>.>.>.>.>.>.>.>.>.>.1 a i $ >.>.>.>.>.>.>.>.>.>.>.>.>.>.>.>.",
">.>.>.>.>.>.>.>.>.>.>.>.>.    >.>.>.>.>.>.>.>.>.>.>.>.>.>.>.>.>.",
">.>.>.>.>.>.>.>.>.>.>.>.>.>.>.>.>.>.>.>.>.>.>.>.>.>.>.>.>.>.>.>.",
">.>.>.>.>.>.>.>.>.>.>.>.>.>.>.>.>.>.>.>.>.>.>.>.>.>.>.>.>.>.>.>.",
">.>.>.>.>.>.>.>.>.>.>.>.>.>.>.>.>.>.>.>.>.>.>.>.>.>.>.>.>.>.>.>.",
">.>.>.>.>.>.>.>.>.>.>.>.>.>.>.>.>.>.>.>.>.>.>.>.>.>.>.>.>.>.>.>."
};
