/* XPM */
static char *_c7c3373070646e4b9c0dd65efdf3493[] = {
/* columns rows colors chars-per-pixel */
"64 64 4 1 ",
"  c #FF5722",
". c #FFCC80",
"X c #E1F5FE",
"o c white",
/* pixels */
"XXXXXXoXXXXXXXXXXXXXXXXXXXXXXXXXXXXXXXXXXXXXXXXXXXXXXXXXXXoXXXXX",
"XXXXXXoXXXXXXXXXXXXXXXXXXXXXXXXXXXXXXXXXXXXXXXXXXXXXXXXXXXoXXXXX",
"XXXXXXoXXXXXXXXXXXXXXXXXXXXXXXXXXXXXXXXXXXXXXXXXXXXXXXXXXXoXXXXX",
"XXXXXXoXXXXXXXXXXXXXXXXXXXXXXXXXXXXXXXXXXXXXXXXXXXXXXXXXXXoXXXXX",
"XXXXXXoXXXXXXXXXXXXXXXXXXXXXXXXXXXXXXXXXXXXXXXXXXXXXXXXXXXoXXXXX",
"XXXXXXoXXXXXXXXXXXXXXXXXXXXXXXXXXXXXXXXXXXXXXXXXXXXXXXXXXXoXXXXX",
"XXXXXXoXXXXXXXXXXXXXXXXXXXXXXXXXXXXXXXXXXXXXXXXXXXXXXXXXXXoXXXXX",
"XXXXXXoXXXXXXXXXXXXXXXXXXXXXXXXXXXXXXXXXXXXXXXXXXXXXXXXXXXoXXXXX",
"XXXXXXoXXXXXXXXXXXXXXXXXXXXXXXXXXXXXXXXXXXXXXXXXXXXXXXXXXXoXXXXX",
"XXXXXXoXXXXXXXXXXXXXXXXXXXXXXXXXXXXXXXXXXXXXXXXXXXXXXXXXXXoXXXXX",
"XXXXXXoXXXXXXXXXXXXXXXXXXXXXXXXXXXXXXXXXXXXXXXXXXXXXXXXXXXoXXXXX",
"XXXXXXoooooooooooooooooooooooo     ooooooooooooooooooooooooXXXXX",
"XXXXXXXXXX                                            XXXXXXXXXX",
"XXXXXX    XXXXXXXXXXXXXXXXXXXX     XXXXXXXXXXXXXXXXXXX     XXXXX",
"oooo  ooooooooooooooooooooooooooooooooooooooooooooooooooooo  ooo",
"... ......................................................... ..",
"...o  .....................................................  o..",
"...ooo  ................................................   ..o..",
"...o..o.         .................................      ...o.o..",
"...o.o.ooo.....oo                                 ..oo.o....o...",
"....o.....oo.oo..ooo.o....ooo.....oo......oo.....o..o...o.ooo...",
"....oo...o.oo..ooooo..o..o...oo..oo.o....o.o....oooo....oo..o...",
"....o.o.o....o.oo.o.o.ooo.....ooo....oooo...oooo....oo.o....o...",
"....o.oo.....ooo...o.oo..oo..oo..oo..oooo.....oo.....oo.....o...",
"....o...ooooo..oo..ooo.o...oo......oo....o..oo..oo..o...oo.o....",
"....oo...oo......oo.....ooo.oo...oo.oo....oo......oo......oo....",
"....o.ooo...o..o...o...oo.o..oooo.....o..o..oo..oo..oo..oo.o....",
".....o.o.oo..oo....oooo..o.o.oooo......oo....oooo....ooo...o....",
".....o..oo.o...o....ooo....ooo...oo..oo..oo..oooo....oo.oo.o....",
".....o..oo.ooo...ooo...o..o...o....oo......oo....oooo.....o.....",
".....o.o....o.o.ooo.....oo...oooo.oooo....oooo....oo......o.....",
".....oo......ooo....o.oo..o.....oo....oooo....oo.o..oo..ooo.....",
"......oo....oo..oo...o.....oo.oo.ooo...oo......oo....ooo..o.....",
"......o..ooo......ooo.oo.....o.....oooo..oo..oo..oo..ooooo......",
"......o.oooo.....oooo...o..ooooo....oo.....oo......oo....o......",
".......o....o..oo..o.o...oo....oo.oo..oo..oooo....oooo...o......",
".......o.....oo......oooo...o...ooo.....oo....oooo....oo.o......",
".......o....o..o......ooo......oo.oo...oooo....oo.......oo......",
".......o..o......oo.oo..ooo..oo.....o.o....o.oo..oo....oo.......",
".......ooo.........o.....o.oo..oo...ooo.....o......o..o.o.......",
".......o..oo.....oo.o.....oooo...ooo...o..oo.oo.....oo..o.......",
"........o...oo..o....o..oo..o.o..oo.....oo.....o..oo..ooo.......",
"........o....ooo.......o......ooo...o..oooo.....oo.....o........",
"........o...oo.oo....oo.oo....oooo...ooo...o...oo.o....o........",
".........o.o.....oooo.....oo.o...oo.oo.o....ooo....oo.oo........",
".........oo.......oo.......oo......oo....o..o.oo....oooo........",
".........o.oo...oo..oo....o..oo..oo.oo....oo...oo..o..oo........",
"..........o..ooo......oooo.....oo.....oo.o..o....oo...o.........",
"..........o..oooo.....ooo.....oooo.....oo....o..o.oo..o.........",
"..........ooo....oo.oo...oo.oo....o...o..oo...oo...oooo.........",
"..........oo.......oo......oo......ooo....oo.oo.o...oo..........",
"..........o.oo....o.ooo..oo..o.....o.o.....oo.....oo.o..........",
"..........o...oooo.....oo.....ooo.o...oo..o..oo..oo.oo..........",
"...........o...ooo....oooo......oo......oo.....oo....o..........",
"...........o.oo...o..o....oo..o...oo..oo..oo..oooo...o..........",
"...........oo......ooo......oo.....oooo....oooo..ooo.o..........",
"............ooo...o...o....o..o....oo.o.....ooo..o.oo...........",
"............o..o.o.....o..o....oo.oo...o..oo..oo....o...........",
"............o..oooo.....ooo.....ooo...o.oo.....ooo..o...........",
"............o.o....o..oo...o..oo...o.o....oo.oo...oo............",
"............oo......oo......oo......o.......o......o............",
"................................................................",
"................................................................",
"................................................................"
};
