/* XPM */
static const char *exit[] = {
/* columns rows colors chars-per-pixel */
"32 32 74 1 ",
"  c black",
". c #090100",
"X c #0E0C0A",
"o c #200900",
"O c #230C00",
"+ c #290D00",
"@ c #2E0F01",
"# c #2F1203",
"$ c #331303",
"% c #2B261F",
"& c #2D271F",
"* c #2E281F",
"= c #36322A",
"- c #3B3429",
"; c #3E3529",
": c #541E03",
"> c #582205",
", c #5F381F",
"< c #712803",
"1 c #5C3921",
"2 c #603A21",
"3 c #63442C",
"4 c #943607",
"5 c #963807",
"6 c #983909",
"7 c #A23C08",
"8 c #A53F0A",
"9 c #A9440F",
"0 c #BC470B",
"q c #BD480B",
"w c #A64613",
"e c #B46230",
"r c #C64807",
"t c #C74908",
"y c #C84908",
"u c #CC4D0B",
"i c #C84C0C",
"p c #CD4E0C",
"a c #CB5314",
"s c #CB5415",
"d c #C75F24",
"f c #C56027",
"g c #D06325",
"h c #D16527",
"j c #D16528",
"k c #D36A2E",
"l c #D46B2F",
"z c #D76D2F",
"x c #D56E32",
"c c #DB7031",
"v c #8F7B61",
"b c #917C61",
"n c #BF8D62",
"m c #C18D61",
"M c #E59A63",
"N c #BFA682",
"B c #BFA784",
"V c #C2A681",
"C c #C4A882",
"Z c #C0A884",
"A c #CEAC83",
"S c #EFB581",
"D c #E8B584",
"F c #F1B782",
"G c #F0B783",
"H c #F1B883",
"J c #F1B884",
"K c #FDDAAA",
"L c #FDDBAC",
"P c #FEDDAE",
"I c #FFDFB0",
"U c #FFE0AE",
"Y c #FFE1B1",
"T c #FFE4B2",
/* pixels */
"iippppppppppppppppppppppppppppii",
"i07445666666666666666666666668qi",
"p7:++@$$$$$$$$$$$$$$$$$$$$$$#>8p",
"uw1==%X                      $6p",
"yfnBZv&                      $6p",
"rxJTTA3o.                    $6p",
"rxFYYDe<O                    $6p",
"rxSPPFc9,--;;*X              $6p",
"rxSPPFzdmNNVCb*              $6p",
"rxSPPSkzHYPUYA3o.            $6p",
"rxSPPSklFPPPPDe<O            $6p",
"rxSPPSkkSLKKLFc9,--;;*X      $6p",
"rxSPPSkkSLKKLFzdmNNVCb*      $6p",
"rxSPPSkkSLKKLSkzHYPUYA3o.    $6p",
"rxSPPSkkSLKKLSklFPPPPDe<O    $6p",
"rxSPPSkkSLKKLSkkSLKKLFc9,----2wu",
"rxSPPSkkSLKKLSkkSLKKLFzdmNNNNmfy",
"rxSPPSkkSLKKLSkkSLKKLSkzHYPPYHxr",
"rxSPPSkkSLKKLSkkSLKKLSklFPPPPFxr",
"rxSPPSkkSLKKLSkkSLKKLSkkSLKKLSxr",
"rxSPPSkkSLKKLSkkSLKKLSkkSLKKLSxr",
"rxSPPSkkSLKKLSkkSLKKLSkkSLKKLSxr",
"rxSPPSkkSLKKLSkkSLKKLSkkSLKKLSxr",
"rxSPPSkkSLKKLSkkSLKKLSkkSLKKLSxr",
"rxSPPSkkSLKKLSkkSLKKLSkkSLKKLSxr",
"rxSPPSkkSLKKPSkkSLKKPSkkSLKKLSxr",
"rxSPPSkkSLKKLSkkSLKKLSkkSLKKLSxr",
"rxSIYSkkSPPPPSkkSPPPPSkkSPPPPSxr",
"rxFYYFkkFPPPIFkkFPPPIFkkFPPPIFxr",
"thMJJMggMFSSFMggMFSSFMggMFSSFMjt",
"ysjxxhaahxxxxhaahxxxxhaahxxxxjsy",
"iytrrtyytrrrrtyytrrrrtyytrrrrtyi"
};
