/* XPM */
static char *_e63a15eecd3478bac4dba646be600b2[] = {
/* columns rows colors chars-per-pixel */
"64 64 13 1 ",
"  c None",
". c black",
"X c #26282B",
"o c #4A2111",
"O c #78361E",
"+ c #960202",
"@ c #AD3636",
"# c #D70000",
"$ c #C31A1A",
"% c #FFCC80",
"& c #C0C0C0",
"* c #F0F4FF",
"= c white",
/* pixels */
"%%%%%%%%%%%%%%%%%%%%%%%%%%%%%%%%%%%%%%%%%%%%%%%%%%%%%%%%%%%%%%%%",
"%%%%%%%%%%%%%%%%%%%%%%%%%%%%%%%%%%%%%%%%%%%%%%%%%%%%%%%%%%%%%%%%",
"%%%%%%%%%%%%%%%%%%%%%%%%%%%%XoOOOOOoX%%%%%%%%%%%%%%%%%%%%%%%%%%%",
"%%%%%%%%%%%%%%%%%%%%%%%%%%%XXoOOOOOoXX%%%%%%%%%%%%%%%%%%%%%%%%%%",
"%%%%%%%%%%%%%%%%%%%%%%%%%%XXoOOOOOOOoXXX%%%%%%%%%%%%%%%%%%%%%%%%",
"%%%%%%%%%%%%%%%%%%%%%%%%%XXoOOOOOOOOOooX%%%%%%%%%%%%%%%%%%%%%%%%",
"%%%%%%%%%%%%%%%%%%%%%%%%XooOOOOOOOOOOOOoX%%%%%%%%%%%%%%%%%%%%%%%",
"%%%%%%%%%%%%%%%%%%%%%%%%XOOOO==OOO==OOOOX%%%%%%%%%%%%%%%%%%%%%%%",
"%%%%%%%%%%%%%%%%%%%%%%%%XOOOO=XOOO=XOOOOX%%%%%%%%%%%%%%%%%%%%%%%",
"%%%%%%%%%%%%%%%%%%%%%%%%XOOOOOOOoOOOOOOOX%%%%%%%%%%%%%%%%%%%%%%%",
"%%%%%%%%%%%%%%%%%%%%%%%%XOOOOOOOOoOOOOOOX%%%%%%%%%%%%%%%%%%%%%%%",
"%%%%%%%%%%%%%%%%%%%%%%%%XooOOOOOooOOOOOoX%%%%%%%%%%%%%%%%%%%%%%%",
"%%%%%%%%%%%%%%%%%%%%%%%%%%%OOOOOOOOOOOO%%%%%%%%%%%%%%%%%%%%%%%%%",
"%%%%%%%%%%%%%%%%%%%%%%%%%%%oOOooooooOoo%%%%%%%%%%%%%%%%%%%%%%%%%",
"%%%%%%%%%%%%%%%%%%%%%%%%%%%oOOOo@@oOOoo%%%%%%%%%%%%%%%%%%%%%%%%%",
"%%%%%%%%%%%%%%%%%%%%%%%%%%%%OOOO@@@OO%%%%%%%%%%%%%%%%%%%%%%%%%%%",
"%%%%%%%%%%%%%%%%%%%%%%%%%%%%oOOOO@@Oo%%%%%%%%%%%%%%%%%%%%%%%%%%%",
"%%%%%%%%%%%%%%%%%%%%%%%%%%%%%oOOOOOo%%%%%%%%%%%%%%%%%%%%%%%%%%%%",
"%%%%%%%%%%%%%%%%%%%%%%%%%%%%%%ooooo%%%%%%%%%%%%%%%%%%%%%%%%%%%%%",
"%%%%%%%%%%%%%%%%%%%%%%%%%%%%%%ooooo%%%%%%%%%%%%%%%%%%%%%%%%%%%%%",
"%%%%%%%%%%%%%%%%%%%%%%%%%%%%%%ooooo%%%%%%%%%%%%%%%%%%%%%%%%%%%%%",
"%%%%%%%%%%%%%%%%%%%%%%%%%%%%%%ooooo%%%%%%%%%%%%%%%%%%%%%%%%%%%%%",
"%%%%%%%%%%%%%%%%%%%%%%%%%%%$=OoooooO=$$*%%%%%%%%%%%%%%%%%%%%%%%%",
"%%%%%%%%%%%%%%%%%%%%%%%%=$$$=OOOOOOO=$$$=%%%%%%%%%%%%%%%%%%%%%%%",
"%%%%%%%%%%%%%%%%%%%%%%% =$$$$=======$$$$=%%%%%%%%%%%%%%%%%%%%%%%",
"%%%%%%%%%%%%%%%%%%%%%%%oO=$$$$$$$$$$$$$=ooo%%%%%%%%%%%%%%%%%%%%%",
"%%%%%%%%%%%%%%%%%%%%%%%oO=$$$$$$+$$$$$$=OOo%%%%%%%%%%%%%%%%%%%%%",
"%%%%%%%%%%%%%%%%%%%%%%ooO=$$$$$$+$$$$$$=OOOo%%%%%%%%%%%%%%%%%%%%",
"%%%%%%%%%%%%%%%%%%%%%%ooo=XX$$X$X$X$$XX=oOOo%%%%%%%%%%%%%%%%%%%%",
"%%%%%%%%%%%%%%%%%%%%%%oOo=X$X$X$X$X$X$$=oOOo%%%%%%%%%%%%%%%%%%%%",
"%%%%%%%%%%%%%%%%%%%%%%oOO+XX$$X$X$X$$X$+OOOo%%%%%%%%%%%%%%%%%%%%",
"%%%%%%%%%%%%%%%%%%%%%%oOO+X$X$X$X$X$$$X+OOOo%%%%%%%%%%%%%%%%%%%%",
"%%%%%%%%%%%%%%%%%%%%%%oOO+XX$$$X$$X$XX$+OOOo%%%%%%%%%%%%%%%%%%%%",
"%%%%%%%%%%%%%%%%%%%%%%oOO+$$$$$$$$$$$$$+OOOo%%%%%%%%%%%%%%%%%%%%",
"%%%%%%%%%%%%%%%%%%%%%%oOO+$$$$$$$$$$$$$+OOOo%%%%%%%%%%%%%%%%%%%%",
"%%%%%%%%%%%%%%%%%%%%%%oOO+$$$XX$$$XX$$$+OOOo%%%%%%%%%%%%%%%%%%%%",
"%%%%%%%%%%%%%%%%%%%%%%oOO+$$$$$X$$$$X$$+OOOo%%%%%%%%%%%%%%%%%%%%",
"%%%%%%%%%%%%%%%%%%%%%%oOO+$$$$X$$$XX$$$+OOOo%%%%%%%%%%%%%%%%%%%%",
"%%%%%%%%%%%%%%%%%%%%%%oOO+$$$X$$$$$$X$$+OOOo%%%%%%%%%%%%%%%%%%%%",
"%%%%%%%%%%%%%%%%%%%%%%oOO+$$$XXX$$XX$$$+OOOo%%%%%%%%%%%%%%%%%%%%",
"%%%%%%%%%%%%%%%%%%%%oooOO+++$$$$$$$$$$++OOOoo%%%%%%%%%%%%%%%%%%%",
"%%%%%%%%%%%%%%%%%%%ooOOOO===$$$$$$$$$===OOOOoo%%%%%%%%%%%%%%%%%%",
"%%%%%%%%%%%%%%%%%%%oO%OOo+$$=========$$+oOO%Oo%%%%%%%%%%%%%%%%%%",
"%%%%%%%%%%%%%%%%%%%oO%O%%+$$$$$$$$$$$$$+%%O%Oo%%%%%%%%%%%%%%%%%%",
"%%%%%%%%%%%%%%%%%%%%%%o%%X$$$$$$$$$$$$$X%%o%%%%%%%%%%%%%%%%%%%%%",
"%%%%%%%%%%%%%%%%%%%%%%%%%*X$$$$$%$$$$$X*%%%%%%%%%%%%%%%%%%%%%%%%",
"%%%%%%%%%%%%%%%%%%%%%%%%%*$$$$$$%$$$$$$*%%%%%%%%%%%%%%%%%%%%%%%%",
"%%%%%%%%%%%%%%%%%%%%%%%%%++$$$$$%$$$$$++%%%%%%%%%%%%%%%%%%%%%%%%",
"%%%%%%%%%%%%%%%%%%%%%%%%%+++$$*$%$*$$+++%%%%%%%%%%%%%%%%%%%%%%%%",
"%%%%%%%%%%%%%%%%%%%%%%%%%*******%*******%%%%%%%%%%%%%%%%%%%%%%%%",
"%%%%%%%%%%%%%%%%%%%%%%%%%%OOOO**%**OOOO%%%%%%%%%%%%%%%%%%%%%%%%%",
"%%%%%%%%%%%%%%%%%%%%%%%%%%OOOO%%%%%OOOO%%%%%%%%%%%%%%%%%%%%%%%%%",
"%%%%%%%%%%%%%%%%%%%%%%%%%%OOOO%%%%%OOOO%%%%%%%%%%%%%%%%%%%%%%%%%",
"%%%%%%%%%%%%%%%%%%%%%%%%%%OOOO%%%%%OOOO%%%%%%%%%%%%%%%%%%%%%%%%%",
"%%%%%%%%%%%%%%%%%%%%%%%%%*OOOO%%%%%OOOO%%%%%%%%%%%%%%%%%%%%%%%%%",
"%%%%%%%%%%%%%%%%%%%%%%%%..=****%%%*****..%%%%%%%%%%%%%%%%%%%%%%%",
"%%%%%%%%%%%%%%%%%%%%%%%%.....=*%%%**.....%%%%%%%%%%%%%%%%%%%%%%%",
"%%%%%%%%%%%%%%%%%%%%%.&.&..#...%%%.&&.#.&.&%%%%%%%%%%%%%%%%%%%%%",
"%%%%%%%%%%%%%%%%%%%%..&.&..#.&&%%%.&&.##&&.&%%%%%%%%%%%%%%%%%%%%",
"%%%%%%%%%%%%%%%%%%%%...........%%%X..........%%%%%%%%%%%%%%%%%%%",
"%%%%%%%%%%%%%%%%%%%%...........%%%&..........%%%%%%%%%%%%%%%%%%%",
"%%%%%%%%%%%%%%%%%%%%#####&&&&&&%%%&&&&&&#####%%%%%%%%%%%%%%%%%%%",
"%%%%%%%%%%%%%%%%%%%%%%%%%%%%%%%%%%%%%%%%%%%%%%%%%%%%%%%%%%%%%%%%",
"%%%%%%%%%%%%%%%%%%%%%%%%%%%%%%%%%%%%%%%%%%%%%%%%%%%%%%%%%%%%%%%%"
};
