/* XPM */
static const char *player[] = {
/* columns rows colors chars-per-pixel */
"32 32 199 2 ",
"   c #000000",
".  c #080704",
"X  c #120E0A",
"o  c #130500",
"O  c #001200",
"+  c #011C02",
"@  c #091807",
"#  c #1E1600",
"$  c #1A1506",
"%  c #0A1F10",
"&  c #290000",
"*  c #240000",
"=  c #2A1B02",
"-  c #241804",
";  c #3C1900",
":  c #002200",
">  c #002B00",
",  c #172A06",
"<  c #003300",
"1  c #003B00",
"2  c #193907",
"3  c #3C2D17",
"4  c #3D3527",
"5  c #3C3330",
"6  c #4E0000",
"7  c #571100",
"8  c #670000",
"9  c #761D00",
"0  c #492703",
"q  c #573C07",
"w  c #4E390E",
"e  c #632200",
"r  c #452F2B",
"t  c #024E00",
"y  c #024302",
"u  c #045602",
"i  c #135504",
"p  c #2E5C14",
"a  c #006C00",
"s  c #006500",
"d  c #037301",
"f  c #126908",
"g  c #2F6700",
"h  c #306E00",
"j  c #145E28",
"k  c #24703A",
"l  c #4F4B00",
"z  c #594706",
"x  c #485601",
"c  c #5A4D0F",
"v  c #6C4904",
"b  c #724C04",
"n  c #685600",
"m  c #675001",
"M  c #745E04",
"N  c #654918",
"B  c #6D501A",
"V  c #456504",
"C  c #486715",
"Z  c #517406",
"A  c #796604",
"S  c #6D6C0F",
"D  c #5B4533",
"F  c #505A31",
"G  c #574028",
"H  c #6B5429",
"J  c #7A5C2C",
"K  c #785924",
"L  c #624430",
"P  c #6F7131",
"I  c #3A1758",
"U  c #2C4164",
"Y  c #6F5841",
"T  c #745C42",
"R  c #487657",
"E  c #7D6145",
"W  c #6B416E",
"Q  c #860100",
"!  c #8D0000",
"~  c #BC0600",
"^  c #C31200",
"/  c #D80E00",
"(  c #EC0100",
")  c #FB0400",
"_  c #955D0D",
"`  c #8A5B14",
"'  c #866904",
"]  c #94650A",
"[  c #8A7F00",
"{  c #8B7818",
"}  c #AC720B",
"|  c #80602D",
" . c #876637",
".. c #997130",
"X. c #815D5B",
"o. c #8A6A45",
"O. c #977547",
"+. c #AD7D65",
"@. c #008300",
"#. c #14810B",
"$. c #2E9819",
"%. c #01AB00",
"&. c #0BA900",
"*. c #03BE01",
"=. c #03B404",
"-. c #14B50D",
";. c #15972D",
":. c #168422",
">. c #229837",
",. c #6F8A00",
"<. c #5EB219",
"1. c #548835",
"2. c #07C902",
"3. c #00D200",
"4. c #0ED300",
"5. c #10C709",
"6. c #2B8745",
"7. c #30A14C",
"8. c #3BAD57",
"9. c #2EA74B",
"0. c #3C9970",
"q. c #4C9342",
"w. c #7A8444",
"e. c #40AF56",
"r. c #40B164",
"t. c #8E8304",
"y. c #9C9109",
"u. c #B79806",
"i. c #8DA800",
"p. c #9AA200",
"a. c #ACAD00",
"s. c #B4A402",
"d. c #B5B200",
"f. c #D48A12",
"g. c #DF9C10",
"h. c #EF9E14",
"j. c #CFBF03",
"k. c #F6B910",
"l. c #FFBD12",
"z. c #9EC600",
"x. c #AAD500",
"c. c #BBE719",
"v. c #D8CD03",
"b. c #DAD900",
"n. c #E1DE01",
"m. c #FCDE09",
"M. c #DEE200",
"N. c #C5F500",
"B. c #CCF019",
"V. c #E7EA00",
"C. c #E2E401",
"Z. c #FBE108",
"A. c #F3EB04",
"S. c #EFF500",
"D. c #F5F601",
"F. c #FAFE00",
"G. c #F9F004",
"H. c #84834F",
"J. c #858451",
"K. c #A78259",
"L. c #B0854B",
"P. c #AC8761",
"I. c #B28A62",
"U. c #B4817E",
"Y. c #B1AE61",
"T. c #CA9C65",
"R. c #D09F63",
"E. c #CB9F74",
"W. c #D3A36E",
"Q. c #CEA57B",
"!. c #D7A879",
"~. c #D2B977",
"^. c #E0AD7E",
"/. c #E6B27A",
"(. c #3E148D",
"). c #37268D",
"_. c #401C99",
"`. c #512590",
"'. c #4F2C97",
"]. c #5017A6",
"[. c #4A2FB3",
"{. c #6A4EA5",
"}. c #501CC2",
"|. c #875A96",
" X c #B3739E",
".X c #846AB6",
"XX c #9785B6",
"oX c #F2BD85",
"OX c #E4B08F",
"+X c #D2A5A0",
"@X c #E5BCAA",
"#X c #FDC58C",
"$X c #FEC891",
"%X c #CFC8BA",
"&X c #FFD9B0",
"*X c #F6D5AD",
"=X c #D9D1D5",
"-X c #E3D6C4",
";X c None",
/* pixels */
";X;X;X;X;X;X;X;X;X;X;X;X;X;X;X;X;X;X;X;X;X;X;X;X;X;X;X;X;X;X;X;X",
";X;X;X;X;X;X;X;X;X;X;X;X;X;X;X;X;X;X;X;X;X;X;X;X;X;X;X;X;X;X;X;X",
";X;X;X;X;X;X;X;X;X;X;X;X;X  y d d d d > ;X;X;X;X;X;X;X;X;X;X;X;X",
";X;X;X;X;X;X;X;X;X;X;X;X  1 @.%.%.%.%.a > ;X;X;X;X;X;X;X;X;X;X;X",
";X;X;X;X;X;X;X;X;X;X;X;X< @.*.3.3.3.3.=.s : ;X;X;X;X;X;X;X;X;X;X",
";X;X;X;X;X;X;X;X;X;XO > @.2.3.3.3.3.3.3.=.a + ;X;X;X;X;X;X;X;X;X",
";X;X;X;X;X;X;X;X;X  > @.*.4.4.4.4.4.4.4.2.=.a O ;X;X;X;X;X;X;X;X",
";X;X;X;X;X;X;X;X;X  t &.V x.N.N.N.N.N.N.i.h %.+ ;X;X;X;X;X;X;X;X",
";X;X;X;X;X;X;X;X  < i Z d.D.F.F.F.F.F.F.n.p.h t : ;X;X;X;X;X;X;X",
";X;X;X;X;X;X;X;X- 2 x } D.Z.G.F.F.F.Z.j.b.V.t.g , 3 ;X;X;X;X;X;X",
";X;X;X;X;X;XN I.| q ] k.v.k.Z.F.F.D.g.` t.b.V.n N O.K.q ;X;X;X;X",
";X;X;X;X;X;XB /.oX .t.v.M b.F.F.D.C.M o. .A n.n L.oXR.q ;X;X;X;X",
";X;X;X;X;X;X;XK I.J z ' f.A.F.m.g.A O.!.L.b g.v O.O.B ;X;X;X;X;X",
";X;X;X;X;X;X;X;XH y.[ v h.l.u.' ` o.!.#XW. .] s.{ N ;X;X;X;X;X;X",
";X;X;X;X;X;X;X;X= a.d.q _ } b w  .E.!.T.O.D z M.A = ;X;X;X;X;X;X",
";X;X;X;X;X;X;X;X  y.s.w 5 r 0 J Q.oXK.L 5 5 z v.m   ;X;X;X;X;X;X",
";X;X;X;X;X;X;X;X  ] } H =X'.r O.#XoXJ I .X%Xc f.q   ;X;X;X;X;X;X",
";X;X;X;X;X;X;X;X;X= - 4 OX`.XX*X#X$X-X{.|.Q.$ = ;X;X;X;X;X;X;X;X",
";X;X;X;X;X;X;X;X;X;X  $ ..U.@X&X#X$X&X+X+.K . ;X;X;X;X;X;X;X;X;X",
";X;X;X;X;X;X;X;X;X;X< i m L.W.^.^.^.^.R...l u ;X;X;X;X;X;X;X;X;X",
";X;X;X;X;X;X;X;X;X> d -.D c P J.H.H.H.S G F *.t : ;X;X;X;X;X;X;X",
";X;X;X;X;X;X;X;XX #.2.;.}.j d d d d d d U [.=.5.i X ;X;X;X;X;X;X",
";X;X;X;X;X;X;XX I.~.w., G f d d d d d d p r 2 Y.~.E   ;X;X;X;X;X",
";X;X;X;X;X;X;XX P.oX X_.q.V x ,.x.z.Z x C R ].OXOXY   ;X;X;X;X;X",
";X;X;X;X;X;X;X. D o.W ).r.1.C i.F.S.Z C q.0.(.X.T r ;X;X;X;X;X;X",
";X;X;X;X;X;X;X;X      % 6.9.;.<.B.c.$.>.7.k       ;X;X;X;X;X;X;X",
";X;X;X;X;X;X;X;X;X;X;Xo @ u >.8.e.8.8.:.y . o ;X;X;X;X;X;X;X;X;X",
";X;X;X;X;X;X;X;X;X  8 ~ 0 @ @ % % % % @ # e ~ & ;X;X;X;X;X;X;X;X",
";X;X;X;X;X;X;X;X;X  8 ) ^ 0 o   ;X;X  # 9 / ( & ;X;X;X;X;X;X;X;X",
";X;X;X;X;X;X;X;X;X;X6 ! Q ; $ ;X;X;X;X# 7 ! Q * ;X;X;X;X;X;X;X;X",
";X;X;X;X;X;X;X;X;X;X;X      ;X;X;X;X;X;X      ;X;X;X;X;X;X;X;X;X",
";X;X;X;X;X;X;X;X;X;X;X;X;X;X;X;X;X;X;X;X;X;X;X;X;X;X;X;X;X;X;X;X"
};
