/* XPM */
static char *_a282f9dfe2e490a80a6c6d7da7377fb[] = {
/* columns rows colors chars-per-pixel */
"64 64 23 1 ",
"  c #2E222F",
". c #3E3546",
"X c #323353",
"o c #7A3045",
"O c #165A4C",
"+ c #37474F",
"@ c #484A77",
"# c #AE2334",
"$ c #E83B3B",
"% c #9E4539",
"& c #FB6B1D",
"* c #CD683D",
"= c #C32454",
"- c #F04F78",
"; c #239063",
": c #1EBC73",
"> c #F79617",
", c #91DB69",
"< c #4D65B4",
"1 c #4D9BE6",
"2 c #FCA790",
"3 c #FDCBB0",
"4 c white",
/* pixels */
"++%o% +++ %%%+++%o% +++ %%%+++%o% +++ %%%+++%o% +++ %%%+++%o% ++",
"+ %o%%+++%oo% + %o%%+++%oo% + %o%%+++%oo% + %o%%+++%oo% + %o%%++",
"+ 222%+++o222 + 222%+++o222 + 222%+++o222 + 222%+++o222 + 222%++",
"+2333o   o3332+2333o   o3332+2333o   o3332+2333o   o3332+2333o  ",
"++ 33%%o%%33 +++ 33%%o%%33 +++ 33%%o%%33 +++ 33%%o%%33 +++ 33%%o",
"++131%222%>3>+++131%222%>3>+++131%222%>3>+++131%222%>3>+++131%22",
"+ <11o.3.o>>& + <11o.3.o>>& + <11o.3.o>>& + <11o.3.o>>& + <11o.3",
"+1<11<3.3&>>&>+1<11<3.3&>>&>+1<11<3.3&>>&>+1<11<3.3&>>&>+1<11<3.",
"32<11 ,2, >>&232<11 ,2, >>&232<11 ,2, >>&232<11 ,2, >>&232<11 ,2",
" +@@@,,,,,;;;+ +@@@,,,,,;;;+ +@@@,,,,,;;;+ +@@@,,,,,;;;+ +@@@,,,",
"++@ 3 ,,, 3 ;+++@ 3 ,,, 3 ;+++@ 3 ,,, 3 ;+++@ 3 ,,, 3 ;+++@ 3 ,,",
"++@ @ &&& ; ;+++@ @ &&& ; ;+++@ @ &&& ; ;+++@ @ &&& ; ;+++@ @ &&",
"++@   & &   ;+++@   & &   ;+++@   & &   ;+++@   & &   ;+++@   & ",
"++%%%%   %%%o+++%%%%   %%%o+++%%%%   %%%o+++%%%%   %%%o+++%%%%  ",
"++%22% +o%%%% ++%22% +o%%%% ++%22% +o%%%% ++%22% +o%%%% ++%22% +",
"++o222 +o%22% ++o222 +o%22% ++o222 +o%22% ++o222 +o%22% ++o222 +",
"  o3332+2333o   o3332+2333o   o3332+2333o   o3332+2333o   o3332+",
"o%%33 ++%o33%%o%%33 ++%o33%%o%%33 ++%o33%%o%%33 ++%o33%%o%%33 ++",
"22%131++%33-%222%131++%33-%222%131++%33-%222%131++%33-%222%131++",
"3.o11< +o---o.3.o11< +o---o.3.o11< +o---o.3.o11< +o---o.3.o11< +",
"33o11<1+3---o333o11<1+3---o333o11<1+3---o333o11<1+3---o333o11<1+",
"33 11<2 2 == 333 11<2 2 == 333 11<2 2 == 333 11<2 2 == 333 11<2 ",
",,,@@@ 3 =-=,,,,,@@@ 3 =-=,,,,,@@@ 3 =-=,,,,,@@@ 3 =-=,,,,,@@@ 3",
",,:2X@++ =-2:,,,:2X@++ =-2:,,,:2X@++ =-2:,,,:2X@++ =-2:,,,:2X@++",
",, 3 @++ =-3=,,, 3 @++ =-3=,,, 3 @++ =-3=,,, 3 @++ =-3=,,, 3 @++",
"&& @ @+++3 3 &&& @ @+++3 3 &&& @ @+++3 3 &&& @ @+++3 3 &&& @ @++",
" &    +++3     & @     3 3 &     @++     & &     ++3     & @ @  ",
"  %o%% ++= %o%%  * %o%%  =  %o%% *+ %o%% 4 4 %o%% += %o%%  *  %o",
"+%%oo%%+++%%oo%%++%%oo%%+++%%oo%%++%%oo%%+++%%oo%%++%%oo%%+++%%o",
"+%o22%%+++%o22%%++%o22%%+++%o22%%++%o22%%+++%o22%%++%o22%%+++%o2",
" o2332o + o2332o  o2332o + o2332o  o2332o + o2332o  o2332o + o23",
" o3333o   o3333o  o3333o   o3333o  o3333o   o3333o  o3333o   o33",
"++ 3% %%o%% %3 ++++ 3% %%o%% %3 ++++ 3% %%o%% %3 ++++ 3% %%o%% %",
"++ 2%o%oo%%o%2 ++++ 2%o%oo%%o%2 ++++ 2%o%oo%%o%2 ++++ 2%o%oo%%o%",
"+111%1o222%>%>>>++111%1o222%>%>>>++111%1o222%>%>>>++111%1o222%>%",
"+1<1%2o.3.o2%>&>++1<1%2o.3.o2%>&>++1<1%2o.3.o2%>&>++1<1%2o.3.o2%",
" <<1%<<3.3&&%>&&  <<1%<<3.3&&%>&&  <<1%<<3.3&&%>&&  <<1%<<3.3&&%",
"3 <11< $2$ &>>& 33 <11< $2$ &>>& 33 <11< $2$ &>>& 33 <11< $2$ &>",
"3 @@@@$$$$$;;;; 33 @@@@$$$$$;;;; 33 @@@@$$$$$;;;; 33 @@@@$$$$$;;",
"+ @XX2#$$$#2OO; ++ @XX2#$$$#2OO; ++ @XX2#$$$#2OO; ++ @XX2#$$$#2O",
"+ @ 32 #$# 23 ; ++ @ 32 #$# 23 ; ++ @ 32 #$# 23 ; ++ @ 32 #$# 23",
"+ @  @ $$$ ;  ; ++ @  @ $$$ ;  ; ++ @  @ $$$ ;  ; ++ @  @ $$$ ; ",
"+ @  @ $$$ ;  ; ++ @  @ $$$ ;  ; ++ @  @ $$$ ;  ; ++ @  @ $$$ ; ",
"+ @  @ 3 3 ;  ; ++ @  @ 3 3 ;  ; ++ @  @ 3 3 ;  ; ++ @  @ 3 3 ; ",
"+ *  * 4 4 o  o ++ *  * 4 4 o  o ++ *  * 4 4 o  o ++ *  * 4 4 o ",
"  +++++    +++++    +++++    +++++    +++++    +++++    +++++   ",
"oo +++ %o%% +++ oooo +++ %o%% +++ oooo +++ %o%% +++ oooo +++ %o%",
"%%% ++%%oo%%++ %%%%%% ++%%oo%%++ %%%%%% ++%%oo%%++ %%%%%% ++%%oo",
"%%% ++%o22%%++ %%%%%% ++%o22%%++ %%%%%% ++%o22%%++ %%%%%% ++%o22",
"32o + o2332o + o2332o + o2332o + o2332o + o2332o + o2332o + o233",
"33o   o3333o + o3333o   o3333o + o3333o   o3333o + o3333o   o333",
"%o%%o%% %3 +++ %o3%o%%o%% %3 +++ %o3%o%%o%% %3 +++ %o3%o%%o%% %3",
"%o%oo%%o%2 +++ %o2%o%oo%%o%2 +++ %o2%o%oo%%o%2 +++ %o2%o%oo%%o%2",
"%3o222%1%111++ 333%3o222%1%111++ 333%3o222%1%111++ 333%3o222%1%1",
"%2o.3.o2%1<1++ 3--%2o.3.o2%1<1++ 3--%2o.3.o2%1<1++ 3--%2o.3.o2%1",
"%=23.3<<%1<< + 2=-%=23.3<<%1<< + 2=-%=23.3<<%1<< + 2=-%=23.3<<%1",
"-  $2$ <11< 333  --  $2$ <11< 333  --  $2$ <11< 333  --  $2$ <11",
"-=$$$$$@@@@ 333 =--=$$$$$@@@@ 333 =--=$$$$$@@@@ 333 =--=$$$$$@@@",
"-2#$$$#2XX@ +++==--2#$$$#2XX@ +++==--2#$$$#2XX@ +++==--2#$$$#2XX",
"32=#$# 23 @ +++==-32=#$# 23 @ +++==-32=#$# 23 @ +++==-32=#$# 23 ",
" 3 $$$ @  @ +++ 3  3 $$$ @  @ +++ 3  3 $$$ @  @ +++ 3  3 $$$ @  ",
" 3 $$$ @  @ +++ 3  3 $$$ @  @ +++ 3  3 $$$ @  @ +++ 3  3 $$$ @  ",
" 3 3 3 @  @ +++ 3  3 3 3 @  @ +++ 3  3 3 3 @  @ +++ 3  3 3 3 @  ",
" = 4 4 *  * +++ =  = 4 4 *  * +++ =  = 4 4 *  * +++ =  = 4 4 *  "
};
