/* XPM */
static const char *wall[] = {
/* columns rows colors chars-per-pixel */
"32 32 163 2 ",
"   c #010201",
".  c #080606",
"X  c #040D04",
"o  c #0A0809",
"O  c #060609",
"+  c #061105",
"@  c #071A07",
"#  c #0B1709",
"$  c #0A1C09",
"%  c #15120F",
"&  c #060D1C",
"*  c #04131B",
"=  c #161210",
"-  c #191513",
";  c #1D1915",
":  c #1F1A19",
">  c #161B11",
",  c #241D1B",
"<  c #0B210A",
"1  c #0D2A0C",
"2  c #0F300E",
"3  c #10300E",
"4  c #0B281E",
"5  c #1E2517",
"6  c #133C12",
"7  c #24261B",
"8  c #22281A",
"9  c #23331B",
"0  c #24391D",
"q  c #000F35",
"w  c #1F2727",
"e  c #2F2722",
"r  c #2D2B22",
"t  c #25232D",
"y  c #202828",
"u  c #372C29",
"i  c #392D29",
"p  c #332B26",
"a  c #343427",
"s  c #3C322C",
"d  c #3D3A2D",
"f  c #262530",
"g  c #41342F",
"h  c #433632",
"j  c #453933",
"k  c #473C38",
"l  c #4E3E39",
"z  c #174D15",
"x  c #194F17",
"c  c #1A5017",
"v  c #1E5C1B",
"b  c #1F601C",
"n  c #21651E",
"m  c #226C1F",
"M  c #236C20",
"N  c #2E612A",
"B  c #38682E",
"V  c #257422",
"C  c #277A23",
"Z  c #287D25",
"A  c #2A7F2A",
"S  c #287835",
"D  c #54433E",
"F  c #1D7261",
"G  c #594741",
"H  c #298126",
"J  c #2A8A27",
"K  c #2C8728",
"L  c #2D8C29",
"P  c #36822E",
"I  c #328D2C",
"U  c #28853A",
"Y  c #3E8234",
"T  c #3C8E33",
"R  c #3D9134",
"E  c #418A37",
"W  c #458539",
"Q  c #438F39",
"!  c #4F883F",
"~  c #409236",
"^  c #459339",
"/  c #49933D",
"(  c #4F8940",
")  c #588F46",
"_  c #559745",
"`  c #589046",
"'  c #569845",
"]  c #599847",
"[  c #5C9A4A",
"{  c #619B4D",
"}  c #6D9F55",
"|  c #679D51",
" . c #6EA056",
".. c #75A15B",
"X. c #9D8073",
"o. c #AA887D",
"O. c #A6907A",
"+. c #AB917E",
"@. c #9FAD78",
"#. c #9DAC77",
"$. c #A1AD79",
"%. c #002D84",
"&. c #002F8C",
"*. c #00308C",
"=. c #003298",
"-. c #023D9E",
";. c #0037A4",
":. c #0139A4",
">. c #064193",
",. c #0D5795",
"<. c #B49084",
"1. c #B99487",
"2. c #B59A85",
"3. c #BA9688",
"4. c #BE988B",
"5. c #AFAF83",
"6. c #B2AF86",
"7. c #B3B486",
"8. c #BAB58B",
"9. c #C19B8D",
"0. c #C69E91",
"q. c #C5A392",
"w. c #CCA495",
"e. c #C6AA92",
"r. c #C8AC94",
"t. c #CFA798",
"y. c #D0A698",
"u. c #D3AA9B",
"i. c #D9AD9F",
"p. c #C7B894",
"a. c #C9BA95",
"s. c #CDB799",
"d. c #C3B492",
"f. c #D8B09E",
"g. c #D2BC9B",
"h. c #DBAFA0",
"j. c #DDB2A3",
"k. c #DDBDA3",
"l. c #E1B4A5",
"z. c #E0BFA5",
"x. c #E1B7A8",
"c. c #E5B8A9",
"v. c #E3C0A7",
"b. c #E3C0A7",
"n. c #E6C2A9",
"m. c #E8C2AB",
"M. c #EFC1B0",
"N. c #EFC1B1",
"B. c #F4C3B3",
"V. c #F1C4B1",
"C. c #F4C5B3",
"Z. c #F5C6B3",
"A. c #F7C6B5",
"S. c #F5C5B5",
"D. c #F4C4B4",
"F. c #F8C7B6",
"G. c #F8C6B5",
"H. c #F8C7B6",
"J. c #FAC8B7",
"K. c #F9C8B7",
"L. c #F6C8B8",
"P. c #F6C8B8",
"I. c #F8C9B9",
/* pixels */
"N.G.G.Z.k.V.k.t.w.u.B.J.J.A.A.A.A.A.G.V.k.V.k.w.w.u.A.J.J.A.A.P.",
"N.Z.v.v. .7.) 0 5 e 3.u.i.B.G.A.A.V.v.k.} 7.! 9 5 u 9.u.i.A.A.P.",
"V.m.} 5.W T L H V < = - a 9.B.A.G.z.} 5.Y T L Z m $ = - d w.Z.P.",
"N.g./ P 6 C L L L V < X x a j.J.Z.p.^ P 6 H L L L V @ + c d c.P.",
"z.{ L J H K Z L L L n < X - 3.A.v.' L J H K Z L L L b $ X , 0.D.",
"d./ L L L H 6 Z L Z 1 c X . l j.a.~ L L L Z 6 H L C 1 c X . G c.",
"Q L Z L L L H L L Z < X   % o.k._ L Z L L L H L L C $ X   ; <.D.",
"/ K 6 C L L L L Z L V +   + p e.[ Z 6 Z L L L L Z L M X   + s x.",
"6.^ H K Z L L H 6 Z H + X x 8 u.8.T H K Z L L Z 6 H C X + z r j.",
"Q I L H 6 C L L Z C m +   X s e._ L L Z 6 H L L Z C n X   X j x.",
"L L Z K H L L L H 2 + +   - 0.k.^ J Z K H L L L Z 1 + +   , y.A.",
"/ K 6 C L L L C V v @ z + u j.n.[ Z 6 Z L L L C V v @ z X h c.P.",
"s.{ E I L U A 4 X X # 7 s w.G.G.g.[ E L L Z C @ X + # 7 j u.G.I.",
"N.m.g.{ S ,.F >.q * N O.4.u.u.u.V.n.g.] M 1 v X   X B +.9.u.u.u.",
"N.G.Z.2.w &.-.;.=.%.* % = - u D l.J.V.+.>   X       X = = ; u k ",
"N.G.c.G , t f f f t , , , u 0.l.B.G.j.l , , , , , , , , , g w.j.",
"N.G.A.j.r.f.e.3.1.4.j.l.l.l.Z.G.A.A.A.j.r.f.e.3.3.9.j.l.l.l.A.P.",
"V.Z.v.v.} 7.` 0 5 e 3.i.i.A.G.A.A.V.v.k. .7.( 9 5 u 9.u.h.A.G.P.",
"V.m.} 7.{ R L H V < = - a 9.B.A.G.z.} 5.Y T L Z m $ = - d w.Z.P.",
"N.g./ / $.^ J L L V < X x a j.J.Z.p.^ P 6 H L L L V @ + x d c.I.",
"k.{ L L R I ^ I L L n < X - 3.A.v.' L J H K Z L L L b $ X , 0.A.",
"d./ J L J R $.^ L Z 1 c X . l j.a.~ L L L Z 6 H L C 1 c X . G c.",
"Q I ^ I L L R I L Z < X   % o.k._ L Z L L L H L L C $ X   ; <.D.",
"/ ~ @.^ J L L I ^ I V +   + p e.[ Z 6 Z L L L L Z L M X   + s x.",
"6./ R I ^ I L R $.^ Z + X x 8 u.8.T H K Z L L Z 6 H C X + z r j.",
"Q I J R @.^ L L T Z m +   X u e._ L L Z 6 H L L Z C n X   X j x.",
"L L ^ I R I L L H 2 + +   - 0.k.^ J Z K H L L L Z 1 + +   , y.A.",
"/ R #.^ J L L C V v @ z + u j.n.[ Z 6 Z L L L C V v @ z X h c.P.",
"s.| ' I L U A 4 X X @ 7 s w.G.G.g.[ E L I ^ A 9 X X # 7 j u.G.I.",
"N.m.g.{ S ,.F >.q * N O.4.u.u.u.V.n.g.' W 8...2.u 8 B +.9.u.u.u.",
"N.G.Z.2.y *.-.;.=.%.* = - ; u D l.J.V.+.a 1.q.w.4.X.> = - ; u k ",
"N.J.c.h o & & & & & O .   ; 4.j.D.I.j.u o : , , , , o .   7 q.j."
};
